<svg width="615" height="112" viewBox="0 0 615 112" fill="none" xmlns="http://www.w3.org/2000/svg">
<path d="M105.4 68.4444C114.638 59.36 124 48.4711 124 34.2222C124 25.1459 120.407 16.4414 114.012 10.0235C107.617 3.60555 98.9439 0 89.9 0C78.988 0 71.3 3.11111 62 12.4444C52.7 3.11111 45.012 0 34.1 0C25.0561 0 16.3826 3.60555 9.98766 10.0235C3.59267 16.4414 0 25.1459 0 34.2222C0 48.5333 9.3 59.4222 18.6 68.4444L62 112L105.4 68.4444Z" fill="url(#paint0_radial_104_38)"/>
<g filter="url(#filter0_b_104_38)">
<path d="M105.4 68.4444C114.638 59.36 124 48.4711 124 34.2222C124 25.1459 120.407 16.4414 114.012 10.0235C107.617 3.60555 98.9439 0 89.9 0C78.988 0 71.3 3.11111 62 12.4444C52.7 3.11111 45.012 0 34.1 0C25.0561 0 16.3826 3.60555 9.98766 10.0235C3.59267 16.4414 0 25.1459 0 34.2222C0 48.5333 9.3 59.4222 18.6 68.4444L62 112L105.4 68.4444Z" fill="white" fill-opacity="0.01"/>
</g>
<path d="M167.26 1.3999V105H147.66V1.3999H167.26ZM212.665 106.26C205.198 106.26 198.478 104.627 192.505 101.36C186.532 97.9999 181.818 93.2866 178.365 87.2199C175.005 81.1532 173.325 74.1532 173.325 66.2199C173.325 58.2866 175.052 51.2866 178.505 45.2199C182.052 39.1532 186.858 34.4866 192.925 31.2199C198.992 27.8599 205.758 26.1799 213.225 26.1799C220.692 26.1799 227.458 27.8599 233.525 31.2199C239.592 34.4866 244.352 39.1532 247.805 45.2199C251.352 51.2866 253.125 58.2866 253.125 66.2199C253.125 74.1532 251.305 81.1532 247.665 87.2199C244.118 93.2866 239.265 97.9999 233.105 101.36C227.038 104.627 220.225 106.26 212.665 106.26ZM212.665 89.1799C216.212 89.1799 219.525 88.3399 222.605 86.6599C225.778 84.8866 228.298 82.2732 230.165 78.8199C232.032 75.3666 232.965 71.1666 232.965 66.2199C232.965 58.8466 231.005 53.1999 227.085 49.2799C223.258 45.2666 218.545 43.2599 212.945 43.2599C207.345 43.2599 202.632 45.2666 198.805 49.2799C195.072 53.1999 193.205 58.8466 193.205 66.2199C193.205 73.5932 195.025 79.2866 198.665 83.2999C202.398 87.2199 207.065 89.1799 212.665 89.1799ZM291.442 86.9399L311.042 27.4399H331.902L303.202 105H279.402L250.842 27.4399H271.842L291.442 86.9399ZM329.471 65.9399C329.471 58.0999 331.011 51.1466 334.091 45.0799C337.264 39.0132 341.511 34.3466 346.831 31.0799C352.244 27.8132 358.264 26.1799 364.891 26.1799C370.677 26.1799 375.717 27.3466 380.011 29.6799C384.397 32.0132 387.897 34.9532 390.511 38.4999V27.4399H410.251V105H390.511V93.6599C387.991 97.2999 384.491 100.333 380.011 102.76C375.624 105.093 370.537 106.26 364.751 106.26C358.217 106.26 352.244 104.58 346.831 101.22C341.511 97.8599 337.264 93.1466 334.091 87.0799C331.011 80.9199 329.471 73.8732 329.471 65.9399ZM390.511 66.2199C390.511 61.4599 389.577 57.3999 387.711 54.0399C385.844 50.5866 383.324 47.9732 380.151 46.1999C376.977 44.3332 373.571 43.3999 369.931 43.3999C366.291 43.3999 362.931 44.2866 359.851 46.0599C356.771 47.8332 354.251 50.4466 352.291 53.8999C350.424 57.2599 349.491 61.2732 349.491 65.9399C349.491 70.6066 350.424 74.7132 352.291 78.2599C354.251 81.7132 356.771 84.3732 359.851 86.2399C363.024 88.1066 366.384 89.0399 369.931 89.0399C373.571 89.0399 376.977 88.1532 380.151 86.3799C383.324 84.5132 385.844 81.8999 387.711 78.5399C389.577 75.0866 390.511 70.9799 390.511 66.2199ZM440.594 38.7799C443.114 35.0466 446.567 32.0132 450.954 29.6799C455.434 27.3466 460.52 26.1799 466.214 26.1799C472.84 26.1799 478.814 27.8132 484.134 31.0799C489.547 34.3466 493.794 39.0132 496.874 45.0799C500.047 51.0532 501.634 58.0066 501.634 65.9399C501.634 73.8732 500.047 80.9199 496.874 87.0799C493.794 93.1466 489.547 97.8599 484.134 101.22C478.814 104.58 472.84 106.26 466.214 106.26C460.427 106.26 455.34 105.14 450.954 102.9C446.66 100.567 443.207 97.5799 440.594 93.9399V105H420.994V1.3999H440.594V38.7799ZM481.614 65.9399C481.614 61.2732 480.634 57.2599 478.674 53.8999C476.807 50.4466 474.287 47.8332 471.114 46.0599C468.034 44.2866 464.674 43.3999 461.034 43.3999C457.487 43.3999 454.127 44.3332 450.954 46.1999C447.874 47.9732 445.354 50.5866 443.394 54.0399C441.527 57.4932 440.594 61.5532 440.594 66.2199C440.594 70.8866 441.527 74.9466 443.394 78.3999C445.354 81.8532 447.874 84.5132 450.954 86.3799C454.127 88.1532 457.487 89.0399 461.034 89.0399C464.674 89.0399 468.034 88.1066 471.114 86.2399C474.287 84.3732 476.807 81.7132 478.674 78.2599C480.634 74.8066 481.614 70.6999 481.614 65.9399ZM527.076 1.3999V105H507.476V1.3999H527.076ZM610.141 64.5399C610.141 67.3399 609.955 69.8599 609.581 72.0999H552.881C553.348 77.6999 555.308 82.0866 558.761 85.2599C562.215 88.4332 566.461 90.0199 571.501 90.0199C578.781 90.0199 583.961 86.8932 587.041 80.6399H608.181C605.941 88.1066 601.648 94.2666 595.301 99.1199C588.955 103.88 581.161 106.26 571.921 106.26C564.455 106.26 557.735 104.627 551.761 101.36C545.881 97.9999 541.261 93.2866 537.901 87.2199C534.635 81.1532 533.001 74.1532 533.001 66.2199C533.001 58.1932 534.635 51.1466 537.901 45.0799C541.168 39.0132 545.741 34.3466 551.621 31.0799C557.501 27.8132 564.268 26.1799 571.921 26.1799C579.295 26.1799 585.875 27.7666 591.661 30.9399C597.541 34.1132 602.068 38.6399 605.241 44.5199C608.508 50.3066 610.141 56.9799 610.141 64.5399ZM589.841 58.9399C589.748 53.8999 587.928 49.8866 584.381 46.8999C580.835 43.8199 576.495 42.2799 571.361 42.2799C566.508 42.2799 562.401 43.7732 559.041 46.7599C555.775 49.6532 553.768 53.7132 553.021 58.9399H589.841Z" fill="black"/>
<path d="M167.26 1.3999V105H147.66V1.3999H167.26ZM212.665 106.26C205.198 106.26 198.478 104.627 192.505 101.36C186.532 97.9999 181.818 93.2866 178.365 87.2199C175.005 81.1532 173.325 74.1532 173.325 66.2199C173.325 58.2866 175.052 51.2866 178.505 45.2199C182.052 39.1532 186.858 34.4866 192.925 31.2199C198.992 27.8599 205.758 26.1799 213.225 26.1799C220.692 26.1799 227.458 27.8599 233.525 31.2199C239.592 34.4866 244.352 39.1532 247.805 45.2199C251.352 51.2866 253.125 58.2866 253.125 66.2199C253.125 74.1532 251.305 81.1532 247.665 87.2199C244.118 93.2866 239.265 97.9999 233.105 101.36C227.038 104.627 220.225 106.26 212.665 106.26ZM212.665 89.1799C216.212 89.1799 219.525 88.3399 222.605 86.6599C225.778 84.8866 228.298 82.2732 230.165 78.8199C232.032 75.3666 232.965 71.1666 232.965 66.2199C232.965 58.8466 231.005 53.1999 227.085 49.2799C223.258 45.2666 218.545 43.2599 212.945 43.2599C207.345 43.2599 202.632 45.2666 198.805 49.2799C195.072 53.1999 193.205 58.8466 193.205 66.2199C193.205 73.5932 195.025 79.2866 198.665 83.2999C202.398 87.2199 207.065 89.1799 212.665 89.1799ZM291.442 86.9399L311.042 27.4399H331.902L303.202 105H279.402L250.842 27.4399H271.842L291.442 86.9399ZM329.471 65.9399C329.471 58.0999 331.011 51.1466 334.091 45.0799C337.264 39.0132 341.511 34.3466 346.831 31.0799C352.244 27.8132 358.264 26.1799 364.891 26.1799C370.677 26.1799 375.717 27.3466 380.011 29.6799C384.397 32.0132 387.897 34.9532 390.511 38.4999V27.4399H410.251V105H390.511V93.6599C387.991 97.2999 384.491 100.333 380.011 102.76C375.624 105.093 370.537 106.26 364.751 106.26C358.217 106.26 352.244 104.58 346.831 101.22C341.511 97.8599 337.264 93.1466 334.091 87.0799C331.011 80.9199 329.471 73.8732 329.471 65.9399ZM390.511 66.2199C390.511 61.4599 389.577 57.3999 387.711 54.0399C385.844 50.5866 383.324 47.9732 380.151 46.1999C376.977 44.3332 373.571 43.3999 369.931 43.3999C366.291 43.3999 362.931 44.2866 359.851 46.0599C356.771 47.8332 354.251 50.4466 352.291 53.8999C350.424 57.2599 349.491 61.2732 349.491 65.9399C349.491 70.6066 350.424 74.7132 352.291 78.2599C354.251 81.7132 356.771 84.3732 359.851 86.2399C363.024 88.1066 366.384 89.0399 369.931 89.0399C373.571 89.0399 376.977 88.1532 380.151 86.3799C383.324 84.5132 385.844 81.8999 387.711 78.5399C389.577 75.0866 390.511 70.9799 390.511 66.2199ZM440.594 38.7799C443.114 35.0466 446.567 32.0132 450.954 29.6799C455.434 27.3466 460.52 26.1799 466.214 26.1799C472.84 26.1799 478.814 27.8132 484.134 31.0799C489.547 34.3466 493.794 39.0132 496.874 45.0799C500.047 51.0532 501.634 58.0066 501.634 65.9399C501.634 73.8732 500.047 80.9199 496.874 87.0799C493.794 93.1466 489.547 97.8599 484.134 101.22C478.814 104.58 472.84 106.26 466.214 106.26C460.427 106.26 455.34 105.14 450.954 102.9C446.66 100.567 443.207 97.5799 440.594 93.9399V105H420.994V1.3999H440.594V38.7799ZM481.614 65.9399C481.614 61.2732 480.634 57.2599 478.674 53.8999C476.807 50.4466 474.287 47.8332 471.114 46.0599C468.034 44.2866 464.674 43.3999 461.034 43.3999C457.487 43.3999 454.127 44.3332 450.954 46.1999C447.874 47.9732 445.354 50.5866 443.394 54.0399C441.527 57.4932 440.594 61.5532 440.594 66.2199C440.594 70.8866 441.527 74.9466 443.394 78.3999C445.354 81.8532 447.874 84.5132 450.954 86.3799C454.127 88.1532 457.487 89.0399 461.034 89.0399C464.674 89.0399 468.034 88.1066 471.114 86.2399C474.287 84.3732 476.807 81.7132 478.674 78.2599C480.634 74.8066 481.614 70.6999 481.614 65.9399ZM527.076 1.3999V105H507.476V1.3999H527.076ZM610.141 64.5399C610.141 67.3399 609.955 69.8599 609.581 72.0999H552.881C553.348 77.6999 555.308 82.0866 558.761 85.2599C562.215 88.4332 566.461 90.0199 571.501 90.0199C578.781 90.0199 583.961 86.8932 587.041 80.6399H608.181C605.941 88.1066 601.648 94.2666 595.301 99.1199C588.955 103.88 581.161 106.26 571.921 106.26C564.455 106.26 557.735 104.627 551.761 101.36C545.881 97.9999 541.261 93.2866 537.901 87.2199C534.635 81.1532 533.001 74.1532 533.001 66.2199C533.001 58.1932 534.635 51.1466 537.901 45.0799C541.168 39.0132 545.741 34.3466 551.621 31.0799C557.501 27.8132 564.268 26.1799 571.921 26.1799C579.295 26.1799 585.875 27.7666 591.661 30.9399C597.541 34.1132 602.068 38.6399 605.241 44.5199C608.508 50.3066 610.141 56.9799 610.141 64.5399ZM589.841 58.9399C589.748 53.8999 587.928 49.8866 584.381 46.8999C580.835 43.8199 576.495 42.2799 571.361 42.2799C566.508 42.2799 562.401 43.7732 559.041 46.7599C555.775 49.6532 553.768 53.7132 553.021 58.9399H589.841Z" fill="black"/>
<defs>
<filter id="filter0_b_104_38" x="-50" y="-50" width="224" height="212" filterUnits="userSpaceOnUse" color-interpolation-filters="sRGB">
<feFlood flood-opacity="0" result="BackgroundImageFix"/>
<feGaussianBlur in="BackgroundImageFix" stdDeviation="25"/>
<feComposite in2="SourceAlpha" operator="in" result="effect1_backgroundBlur_104_38"/>
<feBlend mode="normal" in="SourceGraphic" in2="effect1_backgroundBlur_104_38" result="shape"/>
</filter>
<radialGradient id="paint0_radial_104_38" cx="0" cy="0" r="1" gradientUnits="userSpaceOnUse" gradientTransform="translate(116 14) rotate(118.856) scale(111.893 111.893)">
<stop stop-color="#DC2626"/>
<stop offset="0.25" stop-color="#FACC15"/>
<stop offset="0.5" stop-color="#84CC16"/>
<stop offset="0.75" stop-color="#16A34A"/>
<stop offset="1" stop-color="#2563EB"/>
</radialGradient>
</defs>
</svg>
